HIERARCHY
ROOT Hips
{
	OFFSET 0.000000 0.000000 0.000000 
	CHANNELS 6 Xposition Yposition Zposition Zrotation Yrotation Xrotation
	JOINT LeftUpLeg
	{
		OFFSET 1.363060 -1.794630 0.839290 
		CHANNELS 3 Zrotation Yrotation Xrotation
		JOINT LeftLeg
		{
			OFFSET 2.448110 -6.726130 0.000000 
			CHANNELS 3 Zrotation Yrotation Xrotation
			JOINT LeftFoot
			{
				OFFSET 2.562200 -7.039590 0.000000 
				CHANNELS 3 Zrotation Yrotation Xrotation
				JOINT LeftToeBase
				{
					OFFSET 0.157640 -0.433110 2.322550 
					CHANNELS 3 Zrotation Yrotation Xrotation
					End Site
					{
						OFFSET 0.000000 0.000000 0.000000 
					}
				}
			}
		}
	}
	JOINT RightUpLeg
	{
		OFFSET -1.305520 -1.794630 0.839290 
		CHANNELS 3 Zrotation Yrotation Xrotation
		JOINT RightLeg
		{
			OFFSET -2.542530 -6.985550 0.000000 
			CHANNELS 3 Zrotation Yrotation Xrotation
			JOINT RightFoot
			{
				OFFSET -2.568260 -7.056230 0.000000 
				CHANNELS 3 Zrotation Yrotation Xrotation
				JOINT RightToeBase
				{
					OFFSET -0.164730 -0.452590 2.363150 
					CHANNELS 3 Zrotation Yrotation Xrotation
					End Site
					{
						OFFSET 0.000000 0.000000 0.000000 
					}
				}
			}
		}
	}
	JOINT Spine
	{
		OFFSET 0.028270 2.035590 -0.193380 
		CHANNELS 3 Zrotation Yrotation Xrotation
		JOINT Spine1
		{
			OFFSET 0.056720 2.048850 -0.042750 
			CHANNELS 3 Zrotation Yrotation Xrotation
			JOINT Neck1
			{
				OFFSET -0.054170 1.746240 0.172020 
				CHANNELS 3 Zrotation Yrotation Xrotation
				JOINT Head
				{
					OFFSET 0.104070 1.761360 -0.123970 
					CHANNELS 3 Zrotation Yrotation Xrotation
					End Site
					{
						OFFSET 0.000000 0.000000 0.000000 
					}
				}
			}
			JOINT LeftArm
			{
				OFFSET 3.362410 1.200890 -0.311210 
				CHANNELS 3 Zrotation Yrotation Xrotation
				JOINT LeftForeArm
				{
					OFFSET 4.983000 -0.000000 -0.000000 
					CHANNELS 3 Zrotation Yrotation Xrotation
					JOINT LeftHand
					{
						OFFSET 3.483560 -0.000000 -0.000000 
						CHANNELS 3 Zrotation Yrotation Xrotation
						JOINT LeftHandIndex1
						{
							OFFSET 0.715260 -0.000000 -0.000000 
							CHANNELS 3 Zrotation Yrotation Xrotation
							End Site
							{
								OFFSET 0.000000 0.000000 0.000000 
							}
						}
					}
				}
			}
			JOINT RightArm
			{
				OFFSET -3.136600 1.374050 -0.404650 
				CHANNELS 3 Zrotation Yrotation Xrotation
				JOINT RightForeArm
				{
					OFFSET -5.241900 -0.000000 -0.000000 
					CHANNELS 3 Zrotation Yrotation Xrotation
					JOINT RightHand
					{
						OFFSET -3.444170 -0.000000 -0.000000 
						CHANNELS 3 Zrotation Yrotation Xrotation
						JOINT RightHandIndex1
						{
							OFFSET -0.622530 -0.000000 -0.000000 
							CHANNELS 3 Zrotation Yrotation Xrotation
							End Site
							{
								OFFSET 0.000000 0.000000 0.000000 
							}
						}
					}
				}
			}
		}
	}
}
MOTION
Frames: 12
Frame Time: 0.041667
9.760021 18.154996 -45.689442 6.731874 10.881168 1.901517 -15.569900 -17.011556 -9.148291 -2.400027 8.299568 23.310084 0.569492 2.736161 11.189095 2.973700 -10.652400 -31.116200 21.577921 26.614145 2.025234 1.354929 -9.374181 29.097723 7.921851 -27.187121 -21.625965 -0.174900 -2.693600 7.426800 8.922398 -1.817166 2.053099 -3.254580 -1.130693 -11.991161 -6.144087 2.738287 9.649720 -5.286600 0.905800 4.918300 -86.554330 14.312015 -15.592559 23.454485 -24.117230 -5.553188 1.589246 0.859088 13.253738 -7.125000 0.000000 0.000000 88.261916 6.936390 -6.380371 -21.089953 24.394769 -5.993800 1.496722 0.675933 14.361525 7.125000 0.000000 0.000000 
9.771413 18.153928 -45.673185 6.864696 10.503270 1.871560 -15.771783 -16.722817 -9.160547 -2.386890 8.320026 23.389657 0.569035 2.715484 11.175021 2.748700 -10.276600 -29.877200 21.244920 26.280336 1.691079 1.266187 -9.461185 29.328720 7.905255 -26.887405 -20.906721 -0.138400 -2.397700 6.606200 9.038857 -1.785295 2.335627 -3.125218 -1.085759 -11.870123 -6.025314 2.993658 9.635764 -5.217400 1.023600 4.985500 -86.413922 14.266528 -15.458440 23.372101 -24.006966 -5.502153 1.606196 0.835359 13.653617 -7.125000 0.000000 0.000000 88.171479 7.048250 -7.318429 -20.325784 23.451839 -5.564007 1.519924 0.629500 16.047783 7.125000 0.000000 0.000000 
9.781381 18.148707 -45.653011 6.976160 10.203816 1.833318 -15.945679 -16.458473 -9.131963 -2.376873 8.332372 23.446672 0.555990 2.732436 11.172603 2.673200 -10.146300 -29.451700 20.963718 25.868987 1.364296 1.167952 -9.561288 29.601847 7.845250 -26.484500 -20.138881 -0.111200 -2.149900 5.920100 9.066510 -1.724787 2.251670 -3.049549 -1.047848 -11.906286 -5.946678 3.123181 9.459699 -5.195700 1.118400 4.822300 -86.322050 14.776170 -14.773928 23.433231 -24.007490 -5.489768 1.582682 0.803686 13.886303 -7.125000 0.000000 0.000000 88.230212 6.603365 -8.266651 -19.749591 22.769777 -5.289079 1.540994 0.588187 17.299684 7.125000 0.000000 0.000000 
9.792536 18.150961 -45.637347 7.160695 9.733504 1.850891 -16.171916 -16.010225 -9.224317 -2.365192 8.353419 23.524865 0.578733 2.662851 11.246863 2.663000 -10.128400 -29.393600 20.456047 25.248501 0.810360 1.057162 -9.666625 29.877426 7.716029 -25.805552 -19.078190 -0.087700 -1.909600 5.255900 9.044493 -1.637888 2.238916 -2.992599 -0.997620 -11.953967 -5.929849 3.286908 9.389275 -5.199500 1.214900 4.764100 -86.243068 15.073305 -14.224233 23.464771 -24.003592 -5.483517 1.589489 0.763482 14.275514 -7.125000 0.000000 0.000000 88.184640 6.353344 -9.450837 -19.223874 22.169293 -5.109061 1.566480 0.549818 19.129065 7.125000 0.000000 0.000000 
9.804284 18.154165 -45.624175 7.351977 9.381085 1.836771 -16.389866 -15.492655 -9.351171 -2.352965 8.373676 23.621838 0.712435 2.313538 11.443139 2.692200 -10.179200 -29.559000 20.034569 24.744280 0.398267 0.961898 -9.759249 30.149648 7.586165 -25.255670 -18.404650 -0.072400 -1.735900 4.776400 9.040455 -1.564329 2.357660 -2.900597 -0.945707 -11.913509 -6.134078 3.365962 9.355423 -5.319200 1.257000 4.758300 -86.082013 15.026234 -13.748153 23.363108 -23.889379 -5.450480 1.639836 0.730620 14.993045 -7.125000 0.000000 0.000000 88.075208 6.159350 -10.853801 -18.711835 21.589443 -4.967506 1.597064 0.491921 21.390571 7.125000 0.000000 0.000000 
9.817694 18.154284 -45.613494 7.544136 9.073786 1.834702 -16.604689 -15.097973 -9.457697 -2.334362 8.413381 23.747653 0.792704 2.090725 11.490653 2.764600 -10.303900 -29.966500 19.723174 24.561378 0.177783 0.885431 -9.835763 30.381868 7.482052 -24.857398 -17.993297 -0.072800 -1.740700 4.789500 8.667406 -1.492084 2.051171 -3.102513 -0.948719 -12.247985 -6.087614 3.375409 9.383341 -5.357500 1.304500 4.662500 -85.745760 15.475318 -12.961199 23.313436 -23.820988 -5.440089 1.679613 0.701188 15.384440 -7.125000 0.000000 0.000000 88.323650 5.347993 -11.850652 -18.222434 21.001175 -4.757209 1.620013 0.390254 24.209810 7.125000 0.000000 0.000000 
9.831934 18.157251 -45.603170 7.667295 8.664144 1.884543 -16.752817 -14.820451 -9.613337 -2.305581 8.466313 23.901009 0.809961 2.023939 11.453528 2.649300 -10.104400 -29.315300 19.378741 24.394472 -0.172050 0.813262 -9.911387 30.580234 7.375693 -24.426192 -17.485508 -0.071500 -1.725000 4.746100 8.830288 -1.422402 2.287634 -3.004257 -0.890025 -12.018564 -5.922438 3.472616 9.375508 -5.261100 1.355600 4.661100 -85.783092 15.270998 -12.066019 23.303474 -23.773682 -5.436571 1.693280 0.680131 15.637304 -7.125000 0.000000 0.000000 87.880012 5.149434 -11.876272 -18.397994 21.252659 -4.854067 1.556521 0.517834 24.773347 7.125000 0.000000 0.000000 
9.842970 18.159149 -45.585726 7.715798 8.605202 1.828369 -16.845582 -14.578721 -9.692987 -2.267194 8.532360 24.076179 0.733672 2.210485 11.482690 3.265500 -11.113000 -32.661800 19.286193 24.027163 -0.350205 0.744751 -9.985541 30.818730 7.319808 -24.224510 -17.233895 -0.062800 -1.616500 4.446900 8.857782 -1.437091 2.123814 -2.999369 -0.910718 -12.178042 -5.832421 3.499081 9.497709 -5.236100 1.394600 4.646200 -85.712499 15.627455 -10.710095 23.380948 -23.797416 -5.468840 1.670290 0.690093 15.874265 -7.125000 0.000000 0.000000 87.645385 4.591939 -12.716156 -18.212872 21.202192 -5.083204 1.443791 0.644716 25.174302 7.125000 0.000000 0.000000 
9.853532 18.165913 -45.569231 7.824120 8.062235 1.886642 -16.987241 -14.030476 -9.942567 -2.228747 8.607797 24.246356 0.598637 2.559229 11.426767 4.050400 -12.227200 -36.540600 19.007306 23.797608 -0.730129 0.652231 -10.081743 31.047408 7.312406 -24.004398 -16.477824 -0.039500 -1.282600 3.526700 8.587914 -1.280172 1.664969 -3.186463 -0.881966 -12.589160 -5.668660 3.579717 9.679422 -5.200300 1.480100 4.612400 -85.560603 16.339566 -9.513774 23.435349 -23.968211 -5.702235 1.832479 0.764589 15.747284 -7.125000 0.000000 0.000000 87.557075 3.699261 -13.596021 -18.002897 20.951627 -4.958833 1.458583 0.613763 26.199123 7.125000 0.000000 0.000000 
9.871332 18.166269 -45.552617 7.968111 8.072047 1.782994 -17.135265 -14.032739 -9.863065 -2.212371 8.623410 24.385580 0.906849 1.722286 11.611719 3.474000 -11.425400 -33.728300 18.799176 23.407284 -0.946283 0.548163 -10.185762 31.376669 7.350162 -24.017088 -16.144950 -0.016400 -0.825900 2.270000 8.743259 -1.491906 2.018229 -3.067156 -0.961438 -12.384217 -5.611668 3.818000 10.009775 -5.131500 1.583300 4.849500 -85.757196 16.046779 -8.602610 23.496675 -24.047790 -5.801066 1.865333 0.797691 15.603437 -7.125000 0.000000 0.000000 86.805341 3.598348 -13.686232 -18.039549 20.914683 -4.836368 1.524332 0.515075 27.055529 7.125000 0.000000 0.000000 
9.882605 18.167575 -45.540750 8.091887 7.744357 1.696296 -17.183773 -13.945930 -9.797519 -2.205916 8.615483 24.479690 1.299261 0.666347 11.913816 2.576800 -9.976300 -28.899900 18.626806 23.324022 -1.157204 0.436894 -10.317870 31.790309 7.216463 -23.642594 -15.976670 -0.009100 -0.617000 1.695600 8.575488 -1.421906 2.136553 -3.163581 -0.935187 -12.327003 -5.610779 3.810442 10.048010 -5.165800 1.599200 4.827000 -85.549461 16.054460 -6.977891 23.604870 -24.067273 -5.794783 1.816723 0.772251 15.272192 -7.125000 0.000000 0.000000 86.551507 3.204024 -14.401467 -17.998230 20.933713 -4.944086 1.478558 0.544455 27.568956 7.125000 0.000000 0.000000 
9.893048 18.166982 -45.528290 8.278223 7.671045 1.582584 -17.333733 -13.889829 -9.664922 -2.203687 8.598356 24.541876 1.578244 -0.116907 12.348922 2.126300 -9.124400 -26.185300 18.450056 23.233304 -1.304833 0.303450 -10.478289 32.338755 7.007327 -23.147667 -16.090177 -0.009700 -0.637300 1.751300 8.521688 -1.515175 2.397667 -3.149712 -0.961817 -12.131752 -5.457047 3.865943 9.900187 -5.095300 1.636300 4.732800 -85.501089 15.878930 -5.140548 23.729132 -24.018396 -5.687828 1.727221 0.627629 14.867373 -7.125000 0.000000 0.000000 86.013691 2.960289 -14.772798 -18.072098 20.967697 -4.878166 1.540012 0.443490 27.998222 7.125000 0.000000 0.000000 
